<svg width="24" height="24" viewBox="0 0 24 24" fill="none" xmlns="http://www.w3.org/2000/svg">
	<g clipPath="url(#clip0_1855_2256)">
		<path
			d="M19.4988 8.48235C18.188 9.26471 17.3783 10.6059 17.3783 12.0961C17.3783 13.7725 18.4193 15.3 20 15.9333C19.6916 16.902 19.2289 17.7961 18.6506 18.6157C17.8024 19.7706 16.9157 20.9627 15.6048 20.9627C14.294 20.9627 13.9084 20.2176 12.3663 20.2176C10.8627 20.2176 10.3229 21 9.08916 21C7.85542 21 7.00723 19.9196 6.04337 18.5784C4.77108 16.7157 4.03855 14.5549 4 12.2824C4 8.59412 6.46747 6.61961 8.93494 6.61961C10.2458 6.61961 11.3253 7.43922 12.1349 7.43922C12.906 7.43922 14.1398 6.58235 15.6048 6.58235C17.147 6.5451 18.612 7.25294 19.4988 8.48235ZM14.9108 5.01765C15.5663 4.27255 15.9133 3.34118 15.9518 2.37255C15.9518 2.26078 15.9518 2.11176 15.9133 2C14.7952 2.11176 13.7542 2.63333 13.0217 3.45294C12.3663 4.16078 11.9807 5.0549 11.9422 6.02353C11.9422 6.13529 11.9422 6.24706 11.9807 6.35882C12.0578 6.35882 12.1735 6.39608 12.2506 6.39608C13.2916 6.32157 14.2554 5.8 14.9108 5.01765Z"
			fill="white"
		/>
	</g>
	<defs>
		<clipPath id="clip0_1855_2256">
			<rect width="16" height="19" fill="white" transform="translate(4 2)" />
		</clipPath>
	</defs>
</svg>
